:SAMPLES-PER-SECOND 30
:FULLY-SPECIFIED
:DEGREES
199
root  1.74958 40.256 0.88872 -117.699 -87.7236 117.355
RightUpLeg  -1.06038 -6.16149 -2.80313
RightLeg  6.21171 12.6313 -0.42578
RightFoot  -4.39245 0.0838764 -1.87057
RightToes  -1.16417e-010 0 -3.6325e-017
Spine  -0.734839 0.353648 0.745845
Spine1  11.0507 0.67462 -0.983491
HEad  -9.54631 0.380836 -3.95614
LeftShoulder1  -0.498429 4.78247 -32.8296
LeftArm  7.56109 0.233358 -43.0104
LeftForeArm  32.0902 -12.344 -9.47888
LeftHand  -0.0911965 9.26171 -1.18446
RightShoulder  -0.808551 -5.81056 28.4268
RightArm  26.4198 2.51026 52.1622
RightForeArm  14.9365 14.9022 7.24358
RightHand  -0.0286963 3.18183 -0.618819
LeftUpLeg  0.611082 4.53075 -1.41536
LeftLeg  1.37359 2.67285 0.161692
LeftFoot  -1.17518 -0.295554 3.40191
LeftToes  3.13772e-010 -3.14513e-011 3.96022e-013
200
root  1.6624 40.2537 0.801211 -114.971 -87.7836 114.532
RightUpLeg  -0.791648 -6.09104 -2.65524
RightLeg  6.20897 12.409 -0.478968
RightFoot  -4.5426 0.087759 -1.99541
RightToes  -1.16417e-010 0 -3.6325e-017
Spine  -0.448691 0.31275 0.955919
Spine1  10.7811 0.697115 -1.22721
HEad  -9.55065 0.198199 -3.77615
LeftShoulder1  -0.450803 4.66905 -32.546
LeftArm  8.33221 0.254451 -43.2133
LeftForeArm  31.5901 -12.746 -9.35234
LeftHand  -0.0895496 8.52259 -1.49524
RightShoulder  -0.884223 -5.99815 28.8638
RightArm  26.6451 2.30702 51.7721
RightForeArm  14.3729 14.8344 7.32564
RightHand  -0.0568795 3.51564 -0.994805
LeftUpLeg  0.839693 4.71163 -1.1976
LeftLeg  1.40406 2.3662 0.0846326
LeftFoot  -1.34079 -0.280142 3.2936
LeftToes  3.13772e-010 -3.14513e-011 3.96022e-013
201
root  1.59078 40.2459 0.732283 -112.288 -87.755 111.907
RightUpLeg  -0.832275 -6.11373 -2.66165
RightLeg  6.46011 12.3077 -0.357061
RightFoot  -4.77888 0.094277 -2.20752
RightToes  -1.16417e-010 0 -3.6325e-017
Spine  -0.466753 0.207914 0.909422
Spine1  10.8126 0.533735 -1.04215
HEad  -9.57276 0.0265947 -3.90799
LeftShoulder1  -0.487818 4.75948 -32.7054
LeftArm  9.50525 0.0612603 -43.3689
LeftForeArm  29.8704 -13.3877 -9.15072
LeftHand  -0.0959252 9.43151 -1.22425
RightShoulder  -0.845851 -5.90205 28.6693
RightArm  26.3139 2.10169 51.7342
RightForeArm  14.9546 14.6084 7.3816
RightHand  -0.0279502 3.75912 -0.613475
LeftUpLeg  0.878161 4.70056 -1.17109
LeftLeg  1.43027 2.29186 0.127021
LeftFoot  -1.45353 -0.260791 3.11647
LeftToes  3.13772e-010 -3.14513e-011 3.96022e-013
202
root  1.48688 40.2352 0.625017 -113.588 -87.5599 113.222
RightUpLeg  -0.808961 -5.94724 -2.60075
RightLeg  6.72147 12.2329 -0.441637
RightFoot  -5.18946 0.086062 -2.25441
RightToes  -1.16417e-010 0 -3.6325e-017
Spine  -0.614906 0.242954 0.63633
Spine1  10.9069 0.522355 -0.834989
HEad  -9.38966 0.185138 -4.01649
LeftShoulder1  -0.472765 4.72275 -32.6433
LeftArm  9.95002 0.204204 -43.7199
LeftForeArm  28.8745 -14.0118 -8.80515
LeftHand  -0.0890613 9.73645 -0.973915
RightShoulder  -0.848019 -5.91167 28.6144
RightArm  26.1645 1.85862 51.67
RightForeArm  15.0198 14.3437 7.52241
RightHand  -0.0336906 3.70137 -0.687821
LeftUpLeg  1.08208 4.83138 -1.09553
LeftLeg  1.37285 2.26363 0.016919
LeftFoot  -1.57146 -0.25495 3.09301
LeftToes  3.13772e-010 -3.14513e-011 3.96022e-013
203
root  1.40164 40.2079 0.509275 -110.1 -87.5006 109.86
RightUpLeg  -0.950362 -5.81734 -2.52767
RightLeg  7.11062 11.925 -0.375353
RightFoot  -5.77472 0.0775652 -2.40181
RightToes  -1.16417e-010 0 -3.6325e-017
Spine  -0.595416 0.10907 0.403716
Spine1  10.7342 0.322056 -0.625594
HEad  -9.68696 0.584688 -4.0937
LeftShoulder1  -0.490854 4.77249 -32.5473
LeftArm  11.0392 0.265072 -43.828
LeftForeArm  28.1377 -14.7817 -8.40959
LeftHand  -0.0846456 8.10407 -1.57636
RightShoulder  -0.81089 -5.81868 28.4081
RightArm  26.2327 1.5043 51.6251
RightForeArm  15.4608 14.2676 7.56564
RightHand  -0.00790769 3.71386 -0.359182
LeftUpLeg  0.878536 4.88202 -1.00381
LeftLeg  1.79975 2.05845 0.00899206
LeftFoot  -1.98112 -0.218077 2.80918
LeftToes  3.13772e-010 -3.14513e-011 3.96022e-013
204
root  1.27228 40.1663 0.384744 -111.792 -87.242 111.402
RightUpLeg  -0.921823 -5.60151 -2.58634
RightLeg  7.87852 11.8207 -0.24913
RightFoot  -6.68954 0.0610807 -2.61116
RightToes  -1.16417e-010 0 -3.6325e-017
Spine  -0.524672 0.165672 0.520138
Spine1  10.7947 0.456402 -0.907866
HEad  -9.88091 0.546937 -4.24055
LeftShoulder1  -0.468407 4.71019 -32.6833
LeftArm  13.3297 0.51845 -43.6446
LeftForeArm  25.5719 -16.2288 -7.67837
LeftHand  -0.0853551 8.78359 -1.20503
RightShoulder  -0.867282 -5.9535 28.8092
RightArm  26.2039 1.45258 51.2112
RightForeArm  15.121 13.8412 7.79503
RightHand  -0.0243777 3.19645 -0.56792
LeftUpLeg  1.00058 5.05129 -0.913823
LeftLeg  2.40847 1.98635 -0.106718
LeftFoot  -2.62169 -0.182586 2.60559
LeftToes  3.13772e-010 -3.14513e-011 3.96022e-013
205
root  1.18019 40.0957 0.244391 -104.939 -87.3388 104.483
RightUpLeg  -1.13241 -5.1299 -2.32934
RightLeg  8.95868 10.9142 -0.181381
RightFoot  -7.69602 0.0371179 -2.81621
RightToes  -1.16417e-010 0 -3.6325e-017
Spine  -0.501563 -0.0366859 0.70969
Spine1  11.02 0.265825 -0.956312
HEad  -10.5738 0.683582 -4.45897
LeftShoulder1  -0.492267 4.77176 -32.6795
LeftArm  15.211 0.997087 -43.7317
LeftForeArm  23.0064 -18.054 -6.53122
LeftHand  -0.0454131 8.43822 -0.0256977
RightShoulder  -0.820394 -5.8522 28.3259
RightArm  26.1474 1.56843 51.8811
RightForeArm  14.692 13.1647 8.20592
RightHand  -0.0475695 2.93071 -0.884268
LeftUpLeg  0.320119 5.23113 -0.594639
LeftLeg  4.26034 1.46208 -0.187831
LeftFoot  -3.67696 -0.143158 2.4635
LeftToes  3.13772e-010 -3.14513e-011 3.96022e-013
206
root  1.08119 39.9754 0.111526 -105.944 -87.5138 105.228
RightUpLeg  -1.52132 -4.57335 -1.89518
RightLeg  10.7808 10.2457 0.0428336
RightFoot  -8.76569 0.0160058 -3.31803
RightToes  -1.16417e-010 0 -3.6325e-017
Spine  -0.0210678 -0.0230189 1.51996
Spine1  10.9239 0.392835 -1.15811
HEad  -10.9655 0.196569 -4.79588
LeftShoulder1  -0.5114 4.82311 -32.6173
LeftArm  18.4133 1.74358 -43.4418
LeftForeArm  18.9085 -20.3577 -5.20781
LeftHand  -0.0355689 7.23684 0.114545
RightShoulder  -0.816128 -5.84406 28.2614
RightArm  27.2779 1.84256 52.281
RightForeArm  14.3073 13.5104 8.2054
RightHand  -0.050449 3.55103 -0.907346
LeftUpLeg  -0.736079 5.21714 -0.248962
LeftLeg  7.36255 1.38859 0.129013
LeftFoot  -5.35768 -0.0710035 1.97159
LeftToes  3.13772e-010 -3.14513e-011 3.96022e-013
207
root  0.981755 39.7715 0.00328963 -101.756 -87.9149 100.752
RightUpLeg  -2.17519 -4.56467 -1.44071
RightLeg  13.2754 9.9313 0.591336
RightFoot  -10.3873 -0.0427471 -3.34868
RightToes  -1.16417e-010 0 -3.6325e-017
Spine  0.553436 -0.0653066 3.11326
Spine1  10.7747 0.567463 -1.48486
HEad  -11.4472 0.15029 -5.28436
LeftShoulder1  -0.542254 4.90644 -32.5115
LeftArm  18.6925 2.61507 -43.4075
LeftForeArm  15.1466 -21.1743 -4.8796
LeftHand  -0.023561 8.1435 0.776473
RightShoulder  -0.808286 -5.83195 28.1036
RightArm  29.4958 2.22056 52.8397
RightForeArm  13.4745 14.9671 7.66992
RightHand  -0.0376798 3.77763 -0.730177
LeftUpLeg  -2.79814 4.77423 0.184148
LeftLeg  12.4209 1.60092 0.659629
LeftFoot  -7.40468 -0.00275783 1.37209
LeftToes  3.13772e-010 -3.14513e-011 3.96022e-013
208
root  0.903806 39.5378 -0.0845893 -68.9401 -88.4511 67.6604
RightUpLeg  -2.70195 -5.27511 -0.913573
RightLeg  15.6208 9.61731 1.26029
RightFoot  -11.9251 -0.0989261 -3.64504
RightToes  -1.16417e-010 0 -3.6325e-017
Spine  1.4995 -0.235533 5.2318
Spine1  10.054 0.662737 -1.89273
HEad  -11.747 -0.309024 -5.74355
LeftShoulder1  -0.538864 4.90173 -32.3836
LeftArm  16.1054 3.59016 -43.7101
LeftForeArm  13.3278 -20.9037 -5.02293
LeftHand  -0.0430876 7.15721 -0.202135
RightShoulder  -0.816862 -5.85037 28.1998
RightArm  30.6162 2.672 53.0275
RightForeArm  10.6376 16.4459 6.9749
RightHand  -0.0844463 4.05119 -1.31001
LeftUpLeg  -6.27599 3.44778 0.915742
LeftLeg  19.7215 1.82835 1.05054
LeftFoot  -8.49566 0.0553676 -0.275364
LeftToes  3.13772e-010 -3.14513e-011 3.96022e-013
209
root  0.815302 39.3065 -0.19029 -30.4121 -88.2508 28.7171
RightUpLeg  -2.96541 -5.84176 -0.322888
RightLeg  17.7142 9.13474 1.6966
RightFoot  -13.4929 -0.163009 -3.80939
RightToes  -1.16417e-010 0 -3.6325e-017
Spine  2.32233 -0.218611 6.56762
Spine1  9.86045 0.735351 -1.33202
HEad  -12.2847 -0.743249 -6.33633
LeftShoulder1  -0.616375 5.07341 -33.123
LeftArm  14.7071 3.96495 -43.5626
LeftForeArm  12.6654 -20.5222 -5.20078
LeftHand  -0.0317468 7.61909 0.475903
RightShoulder  -0.838899 -5.90803 28.29
RightArm  30.6661 4.04411 53.0604
RightForeArm  8.95377 17.6051 6.33724
RightHand  -0.0652591 3.80301 -1.08597
LeftUpLeg  -10.5153 2.45595 1.9236
LeftLeg  28.4529 1.25359 1.05377
LeftFoot  -7.82468 0.189103 -4.2891
LeftToes  3.13772e-010 -3.14513e-011 3.96022e-013
210
root  0.676211 39.1266 -0.288654 -7.98303 -87.6224 5.75043
RightUpLeg  -2.74357 -6.31752 0.272108
RightLeg  19.1757 8.63447 1.97319
RightFoot  -14.6626 -0.213267 -3.96142
RightToes  -1.16417e-010 0 -3.6325e-017
Spine  3.13071 -0.124586 8.45651
Spine1  9.59153 1.16428 -1.89229
HEad  -12.2214 -1.96679 -5.82263
LeftShoulder1  -0.597663 5.02507 -33.1283
LeftArm  14.0243 5.01375 -43.5949
LeftForeArm  14.4747 -20.7481 -4.98262
LeftHand  -0.0450046 8.23744 -0.00217532
RightShoulder  -0.860691 -5.95556 28.5114
RightArm  29.3698 5.76961 53.2914
RightForeArm  8.52348 17.9579 6.03903
RightHand  -0.0753205 4.08635 -1.19953
LeftUpLeg  -14.8346 2.09727 2.86308
LeftLeg  36.8549 0.944465 1.1536
LeftFoot  -4.19929 0.480479 -7.34812
LeftToes  3.13772e-010 -3.14513e-011 3.96022e-013
